<svg width="28" height="35" viewBox="0 0 28 35" fill="none" xmlns="http://www.w3.org/2000/svg">
<path d="M23.2102 18.7251C23.1726 14.5071 26.6587 12.4552 26.8179 12.3599C24.8434 9.47677 21.7823 9.08314 20.7071 9.05173C18.137 8.78059 15.6432 10.5917 14.3346 10.5917C12.9988 10.5917 10.9824 9.07791 8.80907 9.12188C6.01175 9.16584 3.39659 10.7864 1.96129 13.3042C-1.00039 18.4382 1.20752 25.9822 4.04463 30.1321C5.46422 32.1642 7.12252 34.4338 9.29379 34.3543C11.4169 34.2663 12.2105 32.9986 14.7733 32.9986C17.312 32.9986 18.0574 34.3543 20.2716 34.303C22.5507 34.2663 23.985 32.2615 25.3543 30.2107C26.9948 27.8813 27.6533 25.5875 27.6795 25.4692C27.6261 25.4514 23.2532 23.7806 23.2092 18.7251H23.2102ZM19.0279 6.32246C20.17 4.89135 20.9521 2.94621 20.7343 0.970703C19.0823 1.04399 17.0147 2.11601 15.8244 3.51467C14.7701 4.74897 13.83 6.76949 14.0718 8.66857C15.929 8.80676 17.8355 7.73054 19.0268 6.32246H19.0279Z" fill="#FFFFFE"/>
</svg>
