<svg width="58" height="23" viewBox="0 0 58 23" fill="none" xmlns="http://www.w3.org/2000/svg">
<path fill-rule="evenodd" clip-rule="evenodd" d="M38.4668 14.4568C38.6279 14.5989 38.716 14.808 38.7069 15.0252C38.7069 15.6371 38.3568 15.9426 37.6605 15.9426H31.6639C31.2037 15.971 30.8055 15.6148 30.7785 15.1469C30.7765 15.1185 30.7765 15.0891 30.7775 15.0597C30.7775 14.745 30.9055 14.4467 31.1306 14.2325L36.0808 8.82937H32.2491C31.999 8.84662 31.7499 8.77355 31.5488 8.62132C31.3847 8.47416 31.2967 8.25901 31.3087 8.03676C31.3087 7.43697 31.6569 7.13657 32.3552 7.13657H38.0857C38.3278 7.12439 38.5649 7.21979 38.733 7.39739C38.889 7.56484 38.9751 7.78811 38.9721 8.0195C38.9661 8.33614 38.838 8.63959 38.6179 8.86489L33.6858 14.2498H37.7655C38.0156 14.2325 38.2658 14.3056 38.4668 14.4568ZM41.6332 10.7373H45.678C45.731 10.1436 45.567 9.54993 45.2168 9.07294C44.8767 8.68424 44.3794 8.47619 43.8682 8.50563C42.6147 8.50563 41.8703 9.24953 41.6332 10.7383V10.7373ZM47.3557 11.737C47.2157 11.876 47.0256 11.9521 46.8315 11.944H41.5632C41.5482 12.6098 41.7853 13.2542 42.2265 13.7454C42.6997 14.1777 43.323 14.398 43.9572 14.3584C44.3374 14.3635 44.7176 14.3117 45.0837 14.2062C45.4359 14.0955 45.773 13.9423 46.0862 13.7454C46.2212 13.6662 46.3733 13.6236 46.5294 13.6196C46.7125 13.6114 46.8895 13.6957 46.9996 13.8449C47.1146 14.0042 47.1747 14.197 47.1677 14.3939C47.1697 14.739 47.0036 15.0627 46.7245 15.2586C46.3393 15.5306 45.9101 15.7325 45.4559 15.8533C44.9217 16.0096 44.3704 16.0887 43.8152 16.0867C43.0098 16.106 42.2125 15.9233 41.4912 15.5559C40.8449 15.219 40.3117 14.6943 39.9565 14.0519C39.5843 13.3567 39.3973 12.5732 39.4163 11.7816C39.4013 10.9129 39.5903 10.0523 39.9655 9.27084C40.3087 8.55738 40.8439 7.95861 41.5092 7.5415C42.1935 7.12134 42.9798 6.90518 43.7802 6.91938C44.8246 6.85443 45.8451 7.25531 46.5744 8.01849C47.2797 8.89939 47.6319 10.0178 47.5588 11.1524C47.5728 11.3676 47.4968 11.5787 47.3547 11.737H47.3557ZM56.4847 7.72113C57.03 8.3808 57.3001 9.23126 57.2401 10.0898C57.2401 10.3172 57.2331 10.4917 57.2201 10.6125L56.8659 14.9703C56.8579 15.2728 56.7298 15.558 56.5107 15.7619C56.2856 15.9598 55.9925 16.0623 55.6954 16.0512C55.4023 16.0695 55.1141 15.9649 54.896 15.763C54.701 15.5498 54.6089 15.2586 54.6489 14.9703L55.0041 10.7028C55.0981 9.36928 54.5779 8.70353 53.4434 8.70353C52.8731 8.67105 52.3179 8.88722 51.9167 9.29722C51.5236 9.75899 51.2985 10.3436 51.2785 10.9545L50.9413 14.9703C50.9333 15.2728 50.8052 15.558 50.5862 15.7619C50.3611 15.9598 50.0679 16.0623 49.7708 16.0512C49.4807 16.0705 49.1925 15.9659 48.9804 15.763C48.7904 15.5468 48.6963 15.2586 48.7233 14.9703L49.2916 7.98195C49.2926 7.69271 49.4236 7.41769 49.6457 7.23501C49.8828 7.04523 50.179 6.94679 50.4801 6.95592C50.7552 6.93968 51.0233 7.03711 51.2254 7.22587C51.4065 7.4187 51.4855 7.68561 51.4385 7.94643L51.4195 8.28844C51.7216 7.85205 52.1308 7.50395 52.609 7.27966C53.1303 7.03508 53.7005 6.91126 54.2768 6.9204C55.0911 6.86052 55.8925 7.15179 56.4847 7.72215V7.72113ZM21.5774 6.67176C20.6731 5.25703 18.8683 4.75162 17.3766 5.49451C15.7839 6.31655 15.1486 8.2925 15.956 9.90919C16.4172 10.8307 17.2786 11.4792 18.281 11.6588C18.159 15.5559 14.9475 18.6168 11.1069 18.493C7.37723 18.3732 4.40493 15.287 4.37091 11.4985C4.36491 8.57971 6.15169 5.96744 8.84888 4.9546C9.3671 4.76481 9.66723 4.21374 9.54718 3.66673L9.53918 3.63323C9.40712 3.03446 9.77728 2.44178 10.3655 2.3068C10.4136 2.29665 10.4626 2.28853 10.5116 2.28447C10.7817 2.2591 11.0548 2.24591 11.328 2.24591C11.6661 2.24591 12.0053 2.2662 12.3404 2.30274C12.9487 2.37074 13.4969 1.92419 13.5619 1.30817C13.5649 1.28787 13.5669 1.26554 13.5679 1.24525C13.5839 0.633279 13.1257 0.11468 12.5255 0.0639368C12.1273 0.0202974 11.7271 0 11.328 0C5.07222 0 0 5.14945 0 11.5005C0 17.8526 5.07222 23 11.328 23C17.5847 23 22.6559 17.8526 22.6559 11.5005C22.6559 10.376 22.4328 7.95252 21.5774 6.67176Z" fill="#AAAAAA"/>
</svg>
