<svg width="220" height="16" viewBox="0 0 220 16" fill="none" xmlns="http://www.w3.org/2000/svg">
<path fill-rule="evenodd" clip-rule="evenodd" d="M1.60082 0.872559C2.2481 0.872559 2.77434 1.40638 2.77434 2.06402C2.77434 2.72165 2.2481 3.25547 1.60082 3.25547C0.952537 3.25547 0.427307 2.72165 0.427307 2.06402C0.427307 1.40638 0.952537 0.872559 1.60082 0.872559ZM52.1169 10.4113C52.7642 10.4113 53.2905 10.9441 53.2905 11.6028C53.2905 12.2604 52.7642 12.7942 52.1169 12.7942C51.4687 12.7942 50.9424 12.2604 50.9424 11.6028C50.9424 10.9431 51.4687 10.4113 52.1169 10.4113ZM66.9374 7.6113C67.0535 7.74018 67.1125 7.90053 67.1125 8.09133C67.1125 8.33997 67.0225 8.55817 66.8454 8.74998L61.8262 14.3348H66.1151C66.3372 14.3348 66.5082 14.3916 66.6303 14.5043C66.7514 14.6169 66.8134 14.7682 66.8134 14.96C66.8134 15.1843 66.7464 15.3558 66.6133 15.4745C66.4812 15.5922 66.2861 15.6511 66.032 15.6511H60.2485C60.0354 15.6511 59.8723 15.5902 59.7573 15.4654C59.6412 15.3436 59.5832 15.1843 59.5832 14.9935C59.5832 14.7692 59.6713 14.5611 59.8483 14.3693L64.8855 8.73374H60.8788C60.6567 8.73374 60.4856 8.67691 60.3636 8.56426C60.2435 8.45161 60.1815 8.30039 60.1815 8.10858C60.1815 7.64682 60.4366 7.41746 60.9458 7.41746H66.4482C66.6583 7.41746 66.8214 7.48139 66.9384 7.61028L66.9374 7.6113ZM70.406 9.07068C70.0058 9.47663 69.7507 10.0653 69.6406 10.8426H73.9285C73.9515 10.0663 73.7924 9.47561 73.4553 9.07068C73.1171 8.66473 72.6379 8.46379 72.0177 8.46379C71.3414 8.46379 70.8041 8.66575 70.406 9.07068ZM75.2181 11.6434C75.1 11.7621 74.9439 11.821 74.7429 11.821H69.5736C69.5856 12.6532 69.7957 13.2976 70.2059 13.7543C70.616 14.209 71.2083 14.4373 71.9836 14.4373C72.759 14.4373 73.4793 14.212 74.1446 13.7614C74.2666 13.6822 74.3887 13.6437 74.5107 13.6437C74.6658 13.6437 74.7929 13.7056 74.8919 13.8294C74.992 13.9532 75.042 14.0983 75.042 14.2678C75.042 14.5276 74.9319 14.7458 74.7108 14.9265C74.4107 15.1731 73.9985 15.3761 73.4723 15.5334C72.9451 15.6917 72.4168 15.7698 71.8846 15.7698C71.0863 15.7698 70.3879 15.6064 69.7907 15.2807C69.1904 14.9539 68.7302 14.487 68.4021 13.8801C68.0749 13.2712 67.9119 12.57 67.9119 11.7712C67.9119 10.8812 68.0799 10.0916 68.4191 9.3995C68.7562 8.70736 69.2294 8.1715 69.8397 7.7889C70.449 7.40629 71.1533 7.21347 71.9506 7.21347C73.0591 7.21347 73.9095 7.54837 74.5017 8.21819C75.094 8.888 75.3921 9.85822 75.3921 11.1288C75.3921 11.3541 75.3331 11.5256 75.2171 11.6434H75.2181ZM82.3302 7.38295C82.4582 7.4956 82.5223 7.65899 82.5223 7.87212C82.5223 8.3897 82.2451 8.67082 81.6909 8.71547L81.2427 8.76622C80.4774 8.84538 79.9101 9.07068 79.538 9.44111C79.1678 9.81255 78.9547 10.3596 78.8977 11.0791L78.5825 14.9255C78.5605 15.2066 78.4665 15.4126 78.3004 15.5415C78.1333 15.6714 77.9282 15.7363 77.6851 15.7363C77.441 15.7363 77.2449 15.6683 77.0949 15.5334C76.9458 15.3984 76.8818 15.1964 76.9048 14.9255L77.452 8.02435C77.463 7.77672 77.5581 7.58592 77.7352 7.44993C77.9122 7.31597 78.1173 7.24899 78.3494 7.24899C78.5715 7.24899 78.7476 7.31292 78.8817 7.44181C79.0147 7.57172 79.0758 7.75947 79.0648 8.00709L79.0147 8.70025C79.568 7.83355 80.4444 7.35555 81.6409 7.26522L81.825 7.24899C82.035 7.22666 82.2041 7.27131 82.3302 7.38295ZM88.5009 13.5422C88.9111 12.9576 89.1181 12.1711 89.1181 11.1796C89.1181 10.3362 88.9251 9.69178 88.5439 9.24727C88.1617 8.80377 87.6145 8.58151 86.9072 8.58151C86.1298 8.58151 85.5366 8.87379 85.1264 9.45836C84.7182 10.0439 84.5131 10.8315 84.5131 11.821C84.5131 12.6765 84.7042 13.323 85.0854 13.7624C85.4686 14.1998 86.0188 14.4201 86.7391 14.4201C87.5054 14.4201 88.0917 14.1268 88.5009 13.5422ZM84.6612 15.2807C84.0749 14.9549 83.6207 14.4881 83.2996 13.8801C82.9775 13.2712 82.8174 12.57 82.8174 11.7702C82.8174 10.8467 82.9865 10.045 83.3246 9.35789C83.6618 8.67183 84.139 8.14309 84.7532 7.77165C85.3685 7.4002 86.0808 7.21448 86.8892 7.21448C87.6865 7.21448 88.3798 7.37991 88.9661 7.71177C89.5543 8.04464 90.0085 8.51149 90.3297 9.11229C90.6518 9.71411 90.8119 10.4215 90.8119 11.2303C90.8119 12.1528 90.6438 12.9556 90.3057 13.6356C89.9655 14.3155 89.4903 14.8422 88.875 15.2127C88.2608 15.5841 87.5445 15.7698 86.7241 15.7698C85.9368 15.7698 85.2495 15.6064 84.6612 15.2807ZM99.0725 9.07068C98.6743 9.47663 98.4192 10.0653 98.3082 10.8426H102.597C102.619 10.0663 102.461 9.47561 102.123 9.07068C101.786 8.66473 101.305 8.46379 100.685 8.46379C100.009 8.46379 99.4717 8.66575 99.0725 9.07068ZM103.885 11.6434C103.769 11.7621 103.61 11.821 103.41 11.821H98.2421C98.2532 12.6532 98.4632 13.2976 98.8744 13.7543C99.2826 14.209 99.8769 14.4373 100.653 14.4373C101.429 14.4373 102.147 14.212 102.812 13.7614C102.934 13.6822 103.057 13.6437 103.178 13.6437C103.333 13.6437 103.46 13.7056 103.561 13.8294C103.661 13.9532 103.71 14.0983 103.71 14.2678C103.71 14.5276 103.599 14.7458 103.377 14.9265C103.078 15.1731 102.666 15.3761 102.14 15.5334C101.615 15.6917 101.084 15.7698 100.552 15.7698C99.7538 15.7698 99.0555 15.6064 98.4582 15.2807C97.86 14.9539 97.3958 14.487 97.0706 13.8801C96.7435 13.2712 96.5804 12.57 96.5804 11.7712C96.5804 10.8812 96.7485 10.0916 97.0866 9.3995C97.4258 8.70736 97.899 8.1715 98.5073 7.7889C99.1175 7.40629 99.8208 7.21347 100.618 7.21347C101.726 7.21347 102.578 7.54837 103.17 8.21819C103.763 8.888 104.059 9.85822 104.059 11.1288C104.059 11.3541 104.002 11.5256 103.885 11.6434ZM108.86 5.59475C108.577 5.90936 108.408 6.3762 108.353 6.99527L108.319 7.41746H109.965C110.187 7.41746 110.355 7.47327 110.471 7.58592C110.588 7.69756 110.647 7.84979 110.647 8.04059C110.647 8.50235 110.391 8.73273 109.882 8.73273H108.22L107.737 14.9255C107.726 15.1964 107.635 15.3984 107.464 15.5344C107.291 15.6683 107.09 15.7374 106.857 15.7374C106.624 15.7374 106.431 15.6683 106.275 15.5344C106.12 15.3984 106.048 15.1964 106.06 14.9255L106.541 8.73273H105.56C105.339 8.73273 105.167 8.67691 105.045 8.56426C104.922 8.45161 104.862 8.30039 104.862 8.10858C104.862 7.8843 104.928 7.71278 105.062 7.59404C105.194 7.4753 105.388 7.41746 105.642 7.41746H106.642L106.658 7.19723C106.835 5.0386 107.981 3.89078 110.097 3.7558L110.447 3.73855C111.034 3.70506 111.328 3.90195 111.328 4.32921C111.328 4.54233 111.268 4.70674 111.145 4.81837C111.023 4.93102 110.846 4.99801 110.615 5.02033L110.164 5.05382C109.577 5.09949 109.142 5.28014 108.86 5.59475ZM115.278 5.59475C114.994 5.90936 114.825 6.3762 114.769 6.99527L114.736 7.41746H116.382C116.605 7.41746 116.773 7.47327 116.889 7.58592C117.005 7.69756 117.063 7.84979 117.063 8.04059C117.063 8.50235 116.808 8.73273 116.3 8.73273H114.637L114.155 14.9255C114.144 15.1964 114.053 15.3984 113.881 15.5344C113.709 15.6683 113.507 15.7374 113.274 15.7374C113.042 15.7374 112.848 15.6683 112.692 15.5344C112.537 15.3984 112.465 15.1964 112.476 14.9255L112.959 8.73273H111.978C111.757 8.73273 111.584 8.67691 111.463 8.56426C111.34 8.45161 111.279 8.30039 111.279 8.10858C111.279 7.8843 111.346 7.71278 111.479 7.59404C111.611 7.4753 111.806 7.41746 112.061 7.41746H113.059L113.076 7.19723C113.253 5.0386 114.399 3.89078 116.515 3.7558L116.864 3.73855C117.452 3.70506 117.745 3.90195 117.745 4.32921C117.745 4.54233 117.685 4.70674 117.563 4.81837C117.44 4.93102 117.262 4.99801 117.031 5.02033L116.581 5.05382C115.995 5.09949 115.561 5.28014 115.278 5.59475ZM123.13 13.5422C123.54 12.9576 123.745 12.1711 123.745 11.1796C123.745 10.3362 123.555 9.69178 123.172 9.24727C122.79 8.80377 122.244 8.58151 121.535 8.58151C120.758 8.58151 120.167 8.87379 119.756 9.45836C119.345 10.0439 119.142 10.8315 119.142 11.821C119.142 12.6765 119.332 13.323 119.715 13.7624C120.098 14.1998 120.648 14.4201 121.368 14.4201C122.134 14.4201 122.719 14.1268 123.13 13.5422ZM119.29 15.2807C118.703 14.9549 118.25 14.4881 117.928 13.8801C117.608 13.2712 117.446 12.57 117.446 11.7702C117.446 10.8467 117.616 10.045 117.953 9.35789C118.29 8.67183 118.767 8.14309 119.383 7.77165C119.997 7.4002 120.71 7.21448 121.517 7.21448C122.316 7.21448 123.008 7.37991 123.595 7.71177C124.184 8.04464 124.636 8.51149 124.959 9.11229C125.28 9.71411 125.441 10.4215 125.441 11.2303C125.441 12.1528 125.271 12.9556 124.934 13.6356C124.596 14.3155 124.118 14.8422 123.503 15.2127C122.89 15.5841 122.173 15.7698 121.352 15.7698C120.565 15.7698 119.879 15.6064 119.291 15.2807H119.29ZM132.381 7.38295C132.509 7.4956 132.573 7.65899 132.573 7.87212C132.573 8.3897 132.295 8.67082 131.743 8.71547L131.293 8.76622C130.529 8.84538 129.961 9.07068 129.589 9.44111C129.219 9.81255 129.006 10.3596 128.95 11.0791L128.633 14.9255C128.611 15.2066 128.517 15.4126 128.352 15.5415C128.184 15.6714 127.98 15.7363 127.737 15.7363C127.492 15.7363 127.297 15.6683 127.145 15.5334C126.997 15.3984 126.933 15.1964 126.956 14.9255L127.504 8.02435C127.515 7.77672 127.609 7.58592 127.787 7.44993C127.963 7.31597 128.168 7.24899 128.4 7.24899C128.622 7.24899 128.8 7.31292 128.934 7.44181C129.066 7.57172 129.128 7.75947 129.115 8.00709L129.066 8.70025C129.619 7.83355 130.494 7.35555 131.693 7.26522L131.875 7.24899C132.085 7.22666 132.255 7.27131 132.381 7.38295ZM136.206 12.5974C136.195 12.6643 136.19 12.7658 136.19 12.9018C136.19 13.4072 136.303 13.7919 136.531 14.0567C136.757 14.3216 137.076 14.4525 137.486 14.4525C137.619 14.4525 137.751 14.4444 137.883 14.4292C138.018 14.4109 138.124 14.4038 138.201 14.4038C138.333 14.4038 138.44 14.4566 138.517 14.5632C138.594 14.6707 138.633 14.8189 138.633 15.0097C138.633 15.2918 138.526 15.4887 138.309 15.6014C138.093 15.713 137.712 15.7698 137.17 15.7698C136.328 15.7698 135.674 15.5334 135.208 15.0615C134.743 14.5875 134.51 13.9248 134.51 13.0693C134.51 12.8896 134.516 12.7496 134.528 12.6471L134.827 8.73374H133.846C133.624 8.73374 133.453 8.67691 133.331 8.56426C133.208 8.45262 133.147 8.2943 133.147 8.09133C133.147 7.87821 133.214 7.71278 133.348 7.59404C133.481 7.47632 133.674 7.41644 133.928 7.41644H134.926L135.058 5.66173C135.081 5.42628 135.175 5.23548 135.342 5.08731C135.508 4.94219 135.713 4.86912 135.958 4.86912C136.212 4.86912 136.41 4.94219 136.555 5.08731C136.7 5.23548 136.759 5.43237 136.738 5.67898L136.604 7.41644H138.251C138.461 7.41644 138.627 7.47327 138.751 7.58491C138.871 7.69756 138.931 7.84877 138.931 8.0416C138.931 8.50337 138.677 8.73374 138.168 8.73374H136.505L136.206 12.5974ZM151.007 7.94011C151.477 8.42421 151.714 9.13766 151.714 10.0835C151.714 10.3088 151.709 10.4773 151.697 10.5899L151.364 14.9255C151.341 15.1843 151.25 15.3842 151.09 15.5253C150.93 15.6653 150.723 15.7363 150.467 15.7363C150.213 15.7363 150.013 15.6653 149.869 15.5253C149.725 15.3842 149.664 15.1843 149.686 14.9265L150.02 10.6742C150.029 10.595 150.035 10.4773 150.035 10.319C150.035 9.17217 149.493 8.59775 148.407 8.59775C147.719 8.59775 147.174 8.8058 146.769 9.22189C146.364 9.63799 146.135 10.2185 146.079 10.9604L145.763 14.9255C145.741 15.1843 145.65 15.3842 145.49 15.5253C145.328 15.6653 145.12 15.7363 144.866 15.7363C144.611 15.7363 144.413 15.6653 144.275 15.5253C144.137 15.3842 144.073 15.1843 144.085 14.9265L144.633 8.02536C144.644 7.7889 144.738 7.59912 144.917 7.45906C145.094 7.318 145.304 7.24797 145.547 7.24797C145.779 7.24797 145.963 7.31597 146.096 7.45095C146.229 7.58592 146.289 7.77165 146.279 8.00709L146.229 8.59775C146.506 8.15933 146.879 7.81934 147.352 7.57781C147.822 7.33525 148.352 7.21448 148.938 7.21448C149.847 7.21448 150.537 7.45602 151.007 7.94011ZM159.046 13.5422C159.457 12.9576 159.662 12.1711 159.662 11.1796C159.662 10.3362 159.47 9.69178 159.088 9.24727C158.708 8.80377 158.159 8.58151 157.451 8.58151C156.675 8.58151 156.082 8.87379 155.671 9.45836C155.263 10.0439 155.057 10.8315 155.057 11.821C155.057 12.6765 155.248 13.323 155.63 13.7624C156.013 14.1998 156.565 14.4201 157.284 14.4201C158.049 14.4201 158.637 14.1268 159.047 13.5422H159.046ZM155.207 15.2807C154.621 14.9549 154.165 14.4881 153.843 13.8801C153.523 13.2712 153.363 12.57 153.363 11.7702C153.363 10.8467 153.531 10.045 153.868 9.35789C154.208 8.67183 154.683 8.14309 155.299 7.77165C155.914 7.4002 156.626 7.21448 157.435 7.21448C158.232 7.21448 158.926 7.37991 159.511 7.71177C160.099 8.04464 160.553 8.51149 160.875 9.11229C161.197 9.71411 161.357 10.4215 161.357 11.2303C161.357 12.1528 161.189 12.9556 160.851 13.6356C160.511 14.3155 160.035 14.8422 159.42 15.2127C158.806 15.5841 158.088 15.7698 157.268 15.7698C156.482 15.7698 155.794 15.6064 155.207 15.2807ZM169.784 7.94011C170.255 8.42421 170.491 9.13766 170.491 10.0835C170.491 10.3088 170.485 10.4773 170.474 10.5899L170.142 14.9255C170.119 15.1843 170.027 15.3842 169.868 15.5253C169.707 15.6653 169.498 15.7363 169.243 15.7363C168.989 15.7363 168.79 15.6653 168.645 15.5253C168.501 15.3842 168.441 15.1843 168.462 14.9265L168.795 10.6742C168.805 10.595 168.811 10.4773 168.811 10.319C168.811 9.17217 168.269 8.59775 167.183 8.59775C166.496 8.59775 165.951 8.8058 165.546 9.22189C165.14 9.63799 164.912 10.2185 164.855 10.9604L164.54 14.9255C164.518 15.1843 164.426 15.3842 164.266 15.5253C164.106 15.6653 163.897 15.7363 163.642 15.7363C163.387 15.7363 163.191 15.6653 163.053 15.5253C162.913 15.3842 162.849 15.1843 162.861 14.9265L163.409 8.02536C163.421 7.7889 163.516 7.59912 163.692 7.45906C163.87 7.318 164.08 7.24797 164.323 7.24797C164.556 7.24797 164.739 7.31597 164.873 7.45095C165.006 7.58592 165.066 7.77165 165.055 8.00709L165.005 8.59775C165.281 8.15933 165.657 7.81934 166.127 7.57781C166.597 7.33525 167.127 7.21448 167.715 7.21448C168.623 7.21448 169.313 7.45602 169.784 7.94011ZM178.249 13.5767C178.664 13.0134 178.871 12.2371 178.871 11.2476C178.871 10.3931 178.677 9.7344 178.29 9.27264C177.902 8.81189 177.35 8.58151 176.628 8.58151C175.898 8.58151 175.321 8.86568 174.9 9.43299C174.48 10.0013 174.268 10.7757 174.268 11.753C174.268 12.6207 174.463 13.2814 174.851 13.736C175.238 14.1927 175.791 14.4201 176.511 14.4201C177.255 14.4201 177.834 14.1389 178.249 13.5767ZM178.93 7.70365C179.457 8.03044 179.864 8.49423 180.151 9.09605C180.441 9.69787 180.584 10.3981 180.584 11.1968C180.584 12.097 180.423 12.8927 180.102 13.5848C179.782 14.277 179.329 14.8148 178.747 15.1964C178.165 15.578 177.497 15.7688 176.746 15.7688C176.114 15.7688 175.567 15.6349 175.108 15.3649C174.649 15.0949 174.295 14.7123 174.052 14.2171L174.002 14.9255C173.991 15.1843 173.903 15.3842 173.736 15.5253C173.57 15.6653 173.364 15.7363 173.122 15.7363C172.877 15.7363 172.684 15.6653 172.54 15.5253C172.395 15.3842 172.33 15.1843 172.34 14.9265L173.171 4.44693C173.182 4.21047 173.276 4.02069 173.454 3.87353C173.631 3.72739 173.842 3.6533 174.085 3.6533C174.328 3.6533 174.521 3.7213 174.658 3.85628C174.798 3.99125 174.861 4.17698 174.851 4.41344L174.518 8.54701C174.794 8.13091 175.163 7.80615 175.623 7.56867C176.083 7.33221 176.583 7.21448 177.127 7.21448C177.803 7.21448 178.403 7.37788 178.93 7.70365ZM186.548 13.8801C186.947 13.4641 187.173 12.9292 187.228 12.2767L187.263 11.8047H186.797C185.977 11.8047 185.334 11.8494 184.869 11.9397C184.403 12.029 184.072 12.1762 183.872 12.3771C183.672 12.5801 183.572 12.8622 183.572 13.2215C183.572 13.6153 183.708 13.9278 183.98 14.1582C184.252 14.3886 184.62 14.5033 185.085 14.5033C185.66 14.5033 186.149 14.2962 186.549 13.8801H186.548ZM188.992 10.117C188.992 10.3301 188.986 10.4945 188.974 10.6062L188.644 14.96C188.631 15.2076 188.551 15.3984 188.401 15.5344C188.251 15.6683 188.054 15.7374 187.81 15.7374C187.567 15.7374 187.373 15.6602 187.229 15.508C187.086 15.3558 187.024 15.1619 187.047 14.9255L187.079 14.3521C186.847 14.8138 186.527 15.164 186.116 15.4065C185.705 15.6481 185.228 15.7698 184.687 15.7698C183.877 15.7698 183.209 15.5476 182.684 15.1031C182.157 14.6586 181.895 14.0882 181.895 13.391C181.895 12.7607 182.054 12.2624 182.377 11.8971C182.697 11.5317 183.209 11.2648 183.914 11.0953C184.617 10.9269 185.562 10.8416 186.747 10.8416H187.346L187.379 10.4205C187.423 9.77906 187.311 9.31019 187.047 9.01182C186.782 8.71345 186.349 8.56426 185.75 8.56426C185.018 8.56426 184.21 8.8129 183.323 9.30714C183.223 9.36296 183.113 9.39138 182.991 9.39138C182.825 9.39138 182.687 9.32947 182.575 9.20566C182.465 9.08184 182.409 8.9357 182.409 8.76723C182.409 8.49728 182.548 8.27198 182.825 8.09234C183.223 7.82239 183.697 7.60825 184.246 7.44993C184.794 7.29263 185.351 7.21448 185.917 7.21448C187.965 7.21448 188.992 8.18267 188.992 10.117ZM197.773 7.94011C198.243 8.42421 198.479 9.13766 198.479 10.0835C198.479 10.3088 198.473 10.4773 198.462 10.5899L198.13 14.9255C198.107 15.1843 198.016 15.3842 197.855 15.5253C197.695 15.6653 197.488 15.7363 197.231 15.7363C196.977 15.7363 196.777 15.6653 196.634 15.5253C196.489 15.3842 196.428 15.1843 196.45 14.9265L196.783 10.6742C196.793 10.595 196.799 10.4773 196.799 10.319C196.799 9.17217 196.257 8.59775 195.171 8.59775C194.484 8.59775 193.938 8.8058 193.533 9.22189C193.13 9.63799 192.899 10.2185 192.844 10.9604L192.528 14.9255C192.506 15.1843 192.415 15.3842 192.254 15.5253C192.092 15.6653 191.885 15.7363 191.631 15.7363C191.376 15.7363 191.179 15.6653 191.041 15.5253C190.903 15.3842 190.838 15.1843 190.85 14.9265L191.398 8.02536C191.408 7.7889 191.503 7.59912 191.68 7.45906C191.858 7.318 192.068 7.24797 192.311 7.24797C192.544 7.24797 192.728 7.31597 192.861 7.45095C192.994 7.58592 193.054 7.77165 193.045 8.00709L192.995 8.59775C193.27 8.15933 193.645 7.81934 194.115 7.57781C194.586 7.33525 195.116 7.21448 195.704 7.21448C196.612 7.21448 197.302 7.45602 197.773 7.94011ZM207.11 14.4535C207.243 14.5875 207.31 14.7509 207.31 14.9427C207.31 15.1457 207.223 15.3304 207.052 15.4999C206.879 15.6694 206.69 15.7536 206.479 15.7536C206.278 15.7536 206.101 15.6694 205.946 15.4999L202.273 11.8037L202.023 14.9427C202.001 15.2025 201.907 15.3994 201.741 15.5334C201.575 15.6694 201.376 15.7363 201.143 15.7363C200.899 15.7363 200.699 15.6633 200.545 15.5161C200.389 15.37 200.323 15.168 200.345 14.9092L201.16 4.46418C201.17 4.20539 201.264 4.00851 201.44 3.87251C201.618 3.73855 201.824 3.66954 202.057 3.66954C202.301 3.66954 202.495 3.74058 202.639 3.88165C202.782 4.02272 202.85 4.2267 202.837 4.49767L202.324 11.0943L206.245 7.53417C206.4 7.37788 206.578 7.29872 206.778 7.29872C206.978 7.29872 207.151 7.37483 207.302 7.52706C207.451 7.67929 207.525 7.84979 207.525 8.0416C207.525 8.24356 207.442 8.42319 207.276 8.58151L204.118 11.3998L207.11 14.4535ZM219.882 3.80046C219.974 3.89383 220.012 4.0217 219.996 4.18611L219.686 8.14207C219.663 8.49931 219.495 8.67894 219.18 8.67894C219.035 8.67894 218.924 8.63428 218.848 8.54498C218.772 8.45465 218.739 8.3217 218.756 8.14207L218.95 5.62114L217.814 7.56969C217.736 7.69452 217.659 7.78484 217.583 7.83863C217.506 7.89241 217.413 7.91982 217.306 7.91982C217.207 7.91982 217.124 7.89241 217.06 7.83863C216.994 7.78382 216.935 7.69452 216.882 7.56969L216.031 5.69116L215.836 8.14207C215.828 8.3217 215.778 8.45465 215.686 8.54498C215.594 8.63428 215.471 8.67894 215.318 8.67894C215.172 8.67894 215.061 8.63428 214.984 8.54498C214.908 8.45465 214.874 8.3217 214.882 8.14207L215.192 4.18509C215.207 4.02272 215.266 3.89383 215.37 3.79944C215.473 3.70709 215.594 3.66041 215.732 3.66041C215.932 3.66041 216.084 3.78118 216.192 4.0217L217.387 6.75272L219.008 4.02272C219.154 3.78118 219.331 3.66041 219.538 3.66041C219.675 3.66041 219.789 3.70709 219.881 3.80046H219.882ZM214.593 4.12725C214.593 4.43881 214.413 4.59409 214.054 4.59409H212.927L212.65 8.15324C212.643 8.31663 212.585 8.44552 212.473 8.53889C212.363 8.63225 212.229 8.67894 212.076 8.67894C211.923 8.67894 211.799 8.63225 211.703 8.53889C211.607 8.44552 211.563 8.31663 211.571 8.15324L211.857 4.59409H210.743C210.428 4.59409 210.272 4.45403 210.272 4.17393C210.272 3.86237 210.447 3.70709 210.8 3.70709H214.122C214.437 3.70709 214.593 3.84714 214.593 4.12725Z" fill="#AAAAAA"/>
</svg>
